<?xml version="1.0" encoding="iso-8859-1"?>
<!-- Generator: Adobe Illustrator 20.1.0, SVG Export Plug-In . SVG Version: 6.00 Build 0)  -->
<svg version="1.1" xmlns="http://www.w3.org/2000/svg" xmlns:xlink="http://www.w3.org/1999/xlink" x="0px" y="0px"
	 viewBox="0 0 765.5 282.3" enable-background="new 0 0 765.5 282.3" xml:space="preserve">
<g id="Logo_Primary">
	<path fill="#FFFFFF" d="M280.6,112.5V112c0-48.9,37.6-87.3,88.5-87.3c34.3,0,56.3,14.4,71.2,35l-35,27.1
		c-9.6-12-20.6-19.7-36.7-19.7c-23.5,0-40,19.9-40,44.4v0.5c0,25.2,16.5,44.8,40,44.8c17.5,0,27.8-8.2,37.9-20.4l35,24.9
		c-15.8,21.8-37.2,37.9-74.3,37.9C319.2,199.3,280.6,162.6,280.6,112.5z"/>
	<polygon fill="#FFFFFF" points="286.7,195.9 286.7,179.9 286.7,169.8 254.5,156.4 223.2,169.4 223.2,112.9 223.2,4.5 177,28.2 
		177,112.9 177,195.9 	"/>
	<path fill="#FFFFFF" d="M480.9,28h3.9l23.4,29.8V28h4.1v37.1H509l-24-30.4v30.4h-4.1V28z"/>
	<path fill="#FFFFFF" d="M536.5,27.7h3.9l16.9,37.4h-4.5l-4.3-9.8h-20.2l-4.4,9.8h-4.3L536.5,27.7z M546.9,51.6l-8.4-18.9L530,51.6
		H546.9z"/>
	<path fill="#FFFFFF" d="M569.1,31.9h-12.5V28h29.2v3.9h-12.5v33.3h-4.2V31.9z"/>
	<path fill="#FFFFFF" d="M593.8,28h4.2v37.1h-4.2V28z"/>
	<path fill="#FFFFFF" d="M607.2,46.7v-0.1c0-10.2,7.7-19.2,19-19.2c11.3,0,18.9,8.9,18.9,19.1v0.1c0,10.2-7.7,19.2-19,19.2
		C614.8,65.8,607.2,56.9,607.2,46.7z M640.7,46.7v-0.1c0-8.4-6.2-15.3-14.6-15.3s-14.5,6.8-14.5,15.2v0.1c0,8.4,6.2,15.3,14.6,15.3
		S640.7,55.1,640.7,46.7z"/>
	<path fill="#FFFFFF" d="M653.9,28h3.9l23.4,29.8V28h4.1v37.1H682l-24-30.4v30.4h-4.1V28z"/>
	<path fill="#FFFFFF" d="M709.6,27.7h3.9l16.9,37.4h-4.5l-4.3-9.8h-20.2l-4.4,9.8h-4.3L709.6,27.7z M719.9,51.6l-8.4-18.9L703,51.6
		H719.9z"/>
	<path fill="#FFFFFF" d="M737.7,28h4.2v33.3h20.9v3.9h-25.1V28z"/>
	<path fill="#FFFFFF" d="M480.9,93.4h4.2v33.3H506v3.9h-25.1V93.4z"/>
	<path fill="#FFFFFF" d="M513.5,93.4h26.8v3.8h-22.6v12.7H538v3.8h-20.3v13h22.9v3.8h-27.1V93.4z"/>
	<path fill="#FFFFFF" d="M562.8,93.2h3.9l16.9,37.4h-4.5l-4.3-9.8h-20.2l-4.4,9.8h-4.3L562.8,93.2z M573.1,117L564.7,98l-8.5,18.9
		H573.1z"/>
	<path fill="#FFFFFF" d="M587.1,112.1V112c0-10.2,7.5-19.2,18.6-19.2c6.3,0,10.1,1.8,13.8,4.9l-2.7,3.2c-2.9-2.5-6-4.2-11.3-4.2
		c-8.2,0-14.1,6.9-14.1,15.2v0.1c0,8.9,5.7,15.4,14.7,15.4c4.2,0,8.2-1.6,10.7-3.7v-9.2h-11.3v-3.8h15.3v14.8
		c-3.4,3.1-8.6,5.7-14.9,5.7C594.4,131.2,587.1,122.7,587.1,112.1z"/>
	<path fill="#FFFFFF" d="M629.8,115V93.4h4.2v21.3c0,8,4.2,12.5,11.4,12.5c6.8,0,11.2-4.1,11.2-12.3V93.4h4.2v21.3
		c0,10.8-6.2,16.4-15.5,16.4C636.1,131.1,629.8,125.5,629.8,115z"/>
	<path fill="#FFFFFF" d="M670.6,93.4h26.8v3.8h-22.6v12.7h20.3v3.8h-20.3v13h22.9v3.8h-27.1V93.4z"/>
	<path fill="#FFFFFF" d="M479.3,177.5v-0.1c0-10.2,7.7-19.2,19-19.2c11.3,0,18.9,8.9,18.9,19.1v0.1c0,10.2-7.7,19.2-19,19.2
		C486.8,196.6,479.3,187.8,479.3,177.5z M512.8,177.5v-0.1c0-8.4-6.2-15.3-14.6-15.3s-14.5,6.8-14.5,15.2v0.1
		c0,8.4,6.2,15.3,14.6,15.3C506.7,192.7,512.8,186,512.8,177.5z"/>
	<path fill="#FFFFFF" d="M526,158.8h26.7v3.9h-22.5V176h20.1v3.8h-20.1V196H526V158.8z"/>
	<path fill="#FFFFFF" d="M575,177.5v-0.1c0-10.5,7.9-19.2,18.8-19.2c6.7,0,10.8,2.4,14.5,5.9l-2.9,3.1c-3.1-3-6.6-5.1-11.7-5.1
		c-8.2,0-14.4,6.7-14.4,15.2v0.1c0,8.6,6.2,15.3,14.4,15.3c5.1,0,8.4-2,12-5.4l2.8,2.7c-3.9,3.9-8.1,6.5-14.9,6.5
		C583,196.6,575,188.2,575,177.5z"/>
	<path fill="#FFFFFF" d="M616.4,158.8h4.2V196h-4.2V158.8z"/>
	<path fill="#FFFFFF" d="M641.1,162.7h-12.5v-3.9h29.2v3.9h-12.5V196h-4.2V162.7z"/>
	<path fill="#FFFFFF" d="M665.9,158.8h4.2V196h-4.2V158.8z"/>
	<path fill="#FFFFFF" d="M680.9,158.8h26.8v3.8h-22.6v12.7h20.3v3.8h-20.3v13H708v3.8h-27.1V158.8z"/>
	<path fill="#FFFFFF" d="M714,190.6l2.6-3.1c3.9,3.5,7.6,5.3,12.7,5.3c5,0,8.3-2.7,8.3-6.3v-0.1c0-3.4-1.9-5.4-9.7-7.1
		c-8.5-1.9-12.5-4.6-12.5-10.7v-0.1c0-5.8,5.1-10.1,12.2-10.1c5.4,0,9.3,1.5,13,4.6l-2.4,3.2c-3.4-2.8-6.9-4-10.7-4
		c-4.8,0-7.9,2.7-7.9,6v0.1c0,3.5,1.9,5.5,10.1,7.2c8.3,1.8,12.1,4.8,12.1,10.5v0.1c0,6.4-5.3,10.5-12.7,10.5
		C723.3,196.5,718.5,194.5,714,190.6z"/>
	<path fill="#FFFFFF" d="M0,28.1h43.4l69.1,88.7V28.1h46v167.8h-40.8l-71.7-92.1v92.1H0V28.1z"/>
</g>
<g id="Tagline">
	<path fill="#FFFFFF" d="M0,268.5L0,268.5c0-5.7,4.3-10.4,10.4-10.4c3.8,0,6,1.3,7.9,3.1l-2.8,3.2c-1.5-1.4-3.1-2.3-5.1-2.3
		c-3.4,0-5.8,2.8-5.8,6.2v0.1c0,3.4,2.4,6.3,5.8,6.3c2.3,0,3.7-0.9,5.2-2.3l2.8,2.8c-2.1,2.2-4.3,3.6-8.2,3.6
		C4.3,278.8,0,274.2,0,268.5z"/>
	<path fill="#FFFFFF" d="M24.3,258.5h4.4v20h-4.4V258.5z"/>
	<path fill="#FFFFFF" d="M40.4,262.5h-6.1v-4h16.5v4h-6.1v15.9h-4.4V262.5z"/>
	<path fill="#FFFFFF" d="M56.6,258.5H61v20h-4.4V258.5z"/>
	<path fill="#FFFFFF" d="M68.1,258.5h15v3.9H72.5v4h9.4v3.9h-9.4v4.2h10.8v3.9H68.1V258.5z"/>
	<path fill="#FFFFFF" d="M88,275.5l2.6-3.1c1.8,1.5,3.7,2.4,6,2.4c1.8,0,2.9-0.7,2.9-1.9v-0.1c0-1.1-0.7-1.7-4-2.5
		c-4-1-6.6-2.1-6.6-6.1v-0.1c0-3.6,2.9-6,7-6c2.9,0,5.4,0.9,7.4,2.5l-2.3,3.3c-1.8-1.2-3.5-2-5.2-2s-2.6,0.8-2.6,1.7v0.1
		c0,1.3,0.9,1.7,4.3,2.6c4,1.1,6.3,2.5,6.3,6v0.1c0,4-3,6.2-7.3,6.2C93.4,278.7,90.4,277.7,88,275.5z"/>
	<path fill="#FFFFFF" d="M119,275.5l2.6-3.1c1.8,1.5,3.7,2.4,6,2.4c1.8,0,2.9-0.7,2.9-1.9v-0.1c0-1.1-0.7-1.7-4-2.5
		c-4-1-6.6-2.1-6.6-6.1v-0.1c0-3.6,2.9-6,7-6c2.9,0,5.4,0.9,7.4,2.5L132,264c-1.8-1.2-3.5-2-5.2-2s-2.6,0.8-2.6,1.7v0.1
		c0,1.3,0.9,1.7,4.3,2.6c4,1.1,6.3,2.5,6.3,6v0.1c0,4-3,6.2-7.3,6.2C124.5,278.7,121.4,277.7,119,275.5z"/>
	<path fill="#FFFFFF" d="M145,262.5h-6.1v-4h16.5v4h-6.1v15.9H145V262.5z"/>
	<path fill="#FFFFFF" d="M161,258.5h9.1c2.5,0,4.5,0.7,5.8,2c1.1,1.1,1.7,2.7,1.7,4.6v0.1c0,3.2-1.7,5.2-4.3,6.2l4.9,7.1h-5.1
		l-4.3-6.4h-3.4v6.4H161V258.5z M169.8,268.2c2.1,0,3.4-1.1,3.4-2.8v-0.1c0-1.9-1.3-2.9-3.4-2.9h-4.4v5.7H169.8z"/>
	<path fill="#FFFFFF" d="M182.9,268.5L182.9,268.5c0-5.7,4.5-10.4,10.6-10.4s10.6,4.6,10.6,10.3v0.1c0,5.7-4.5,10.3-10.6,10.3
		S182.9,274.2,182.9,268.5z M199.5,268.5L199.5,268.5c0-3.5-2.5-6.3-6-6.3s-6,2.8-6,6.2v0.1c0,3.4,2.5,6.3,6,6.3
		C197,274.7,199.5,271.9,199.5,268.5z"/>
	<path fill="#FFFFFF" d="M210.1,258.5h4l9.3,12.3v-12.3h4.3v20h-3.7l-9.7-12.7v12.7h-4.3V258.5z"/>
	<path fill="#FFFFFF" d="M233.9,268.5L233.9,268.5c0-5.7,4.4-10.4,10.5-10.4c3.6,0,5.8,1,7.8,2.7l-2.8,3.3c-1.5-1.3-2.9-2-5.2-2
		c-3.2,0-5.7,2.8-5.7,6.2v0.1c0,3.6,2.5,6.3,6,6.3c1.6,0,3-0.4,4.1-1.2v-2.9h-4.4v-3.8h8.7v8.7c-2.1,1.7-4.9,3.2-8.5,3.2
		C238.2,278.8,233.9,274.4,233.9,268.5z"/>
	<path fill="#FFFFFF" d="M274.6,262.5h-6.1v-4h16.5v4H279v15.9h-4.4V262.5z"/>
	<path fill="#FFFFFF" d="M288.8,268.5L288.8,268.5c0-5.7,4.5-10.4,10.6-10.4s10.6,4.6,10.6,10.3v0.1c0,5.7-4.5,10.3-10.6,10.3
		S288.8,274.2,288.8,268.5z M305.4,268.5L305.4,268.5c0-3.5-2.5-6.3-6-6.3s-6,2.8-6,6.2v0.1c0,3.4,2.5,6.3,6,6.3
		C303,274.7,305.4,271.9,305.4,268.5z"/>
	<path fill="#FFFFFF" d="M315.2,268.5L315.2,268.5c0-5.7,4.4-10.4,10.5-10.4c3.6,0,5.8,1,7.8,2.7l-2.8,3.3c-1.5-1.3-2.9-2-5.2-2
		c-3.2,0-5.7,2.8-5.7,6.2v0.1c0,3.6,2.5,6.3,6,6.3c1.6,0,3-0.4,4.1-1.2v-2.9h-4.4v-3.8h8.7v8.7c-2.1,1.7-4.9,3.2-8.5,3.2
		C319.5,278.8,315.2,274.4,315.2,268.5z"/>
	<path fill="#FFFFFF" d="M340.6,258.5h15v3.9h-10.7v4h9.4v3.9h-9.4v4.2h10.8v3.9h-15.2V258.5z"/>
	<path fill="#FFFFFF" d="M366.5,262.5h-6.1v-4h16.5v4h-6.1v15.9h-4.4V262.5z"/>
	<path fill="#FFFFFF" d="M382.4,258.5h4.4v7.9h8.1v-7.9h4.4v20h-4.4v-8h-8.1v8h-4.4V258.5z"/>
	<path fill="#FFFFFF" d="M406.2,258.5h15v3.9h-10.7v4h9.4v3.9h-9.4v4.2h10.8v3.9h-15.2V258.5z"/>
	<path fill="#FFFFFF" d="M427.5,258.5h9.1c2.5,0,4.5,0.7,5.8,2c1.1,1.1,1.7,2.7,1.7,4.6v0.1c0,3.2-1.7,5.2-4.3,6.2l4.9,7.1h-5.1
		l-4.3-6.4h-3.4v6.4h-4.4V258.5z M436.3,268.2c2.1,0,3.4-1.1,3.4-2.8v-0.1c0-1.9-1.3-2.9-3.4-2.9h-4.4v5.7H436.3z"/>
	<rect y="227.9" fill="#FFFFFF" width="741.6" height="4.8"/>
</g>
</svg>
