<svg height="55" viewBox="0 0 154 55" width="154" xmlns="http://www.w3.org/2000/svg"><g fill="#6a6c6e" fill-rule="evenodd"><path d="m2.10750893 55c-1.20952238 0-2.10750893-.8330927-2.10750893-1.8861956v-.0105863c0-1.0425166.88044977-1.8963215 2.1425825-1.8963215.77522906 0 1.23943808.2301361 1.62060526.5656745l-.5751034.5919101c-.31720949-.2568319-.64009265-.4137847-1.05065974-.4137847-.69321879 0-1.19250138.5132035-1.19250138 1.1419354v.0105862c0 .6287319.48741947 1.1525217 1.19250138 1.1525217.4693669 0 .7566607-.1675391 1.07954386-.429434l.57613497.5187268c-.42346178.4036588-.89282868.6549674-1.68559452.6549674"/><path d="m4.74137931 55h.94827586v-3.7931034h-.94827586z"/><path d="m9.38625076 51.97656v3.02344h-.75526014v-3.02344h-1.04478372v-.7696634h2.8448276v.7696634z"/><path d="m11.3793103 55h.9482759v-3.7931034h-.9482759z"/><path d="m14.2241379 55v-3.7931034h2.8185691v.7421496h-2.001742v.7697601h1.7611954v.7421496h-1.7611954v.7964184h2.0280005v.7426257z"/><path d="m19.5425129 55c-.5445143 0-1.093991-.1948385-1.5252715-.5900692l.4669198-.574334c.3239116.2739773.6627104.4479898 1.073239.4479898.3239115 0 .5192509-.1318978.5192509-.3475623v-.0106444c0-.2054829-.1236097-.3110011-.7245152-.4688157-.723613-.1897478-1.1914351-.3952307-1.1914351-1.1273792v-.0106444c0-.6692079.5242134-1.111644 1.2586535-1.111644.5237623 0 .9703813.1684589 1.3348945.4688157l-.4109797.6113579c-.3184979-.2267717-.6315824-.3632975-.9347419-.3632975-.3027084 0-.4619574.1420794-.4619574.3211828v.0101816c0 .2425068.1542865.3216455.7754929.4850137.7294777.1948385 1.1400063.4637249 1.1400063 1.1060904v.0106444c0 .7321486-.5440632 1.1431144-1.3195561 1.1431144"/><path d="m25.2321681 55c-.5445143 0-1.093991-.1948385-1.5252715-.5900692l.4669198-.574334c.3239115.2739773.6627104.4479898 1.0736901.4479898.3234604 0 .5187998-.1318978.5187998-.3475623v-.0106444c0-.2054829-.1236097-.3110011-.7245152-.4688157-.723613-.1897478-1.1914351-.3952307-1.1914351-1.1273792v-.0106444c0-.6692079.5242134-1.111644 1.2586535-1.111644.5237622 0 .9703812.1684589 1.3348945.4688157l-.4109797.6113579c-.318498-.2267717-.6315824-.3632975-.9347419-.3632975-.3027085 0-.4619575.1420794-.4619575.3211828v.0101816c0 .2425068.1542866.3216455.7750419.4850137.7299288.1948385 1.1404573.4637249 1.1404573 1.1060904v.0106444c0 .7321486-.5440631 1.1431144-1.319556 1.1431144"/><path d="m30.2483197 51.97656v3.02344h-.7552601v-3.02344h-1.0447837v-.7696634h2.8448275v.7696634z"/><path d="m34.9246957 52.5020446c0-.3574628-.2880489-.541668-.7584004-.541668h-.9594288v1.0890477h.9781548c.4703514 0 .7396744-.217048.7396744-.5364321zm-.0187259 2.4979554-.9401521-1.213755h-.7589512v1.213755h-.9654872v-3.7931034h2.0064289c1.0337818 0 1.6544915.4716985 1.6544915 1.2518336v.0109476c0 .6121133-.3822294.996707-.9401521 1.1756764l1.0723352 1.3546458z"/><path d="m39.9548964 53.1034483c0-.6286556-.4483288-1.1523819-1.0807367-1.1523819-.63196 0-1.0708832.5131413-1.0708832 1.1417969v.010585c0 .6286556.4487766 1.1523818 1.0811845 1.1523818.6319599 0 1.0704354-.5131413 1.0704354-1.1422571zm-1.0807367 1.8965517c-1.1008913 0-1.8914011-.8435766-1.8914011-1.886427v-.0101247c0-1.0428504.8003632-1.8965517 1.9017024-1.8965517 1.1008913 0 1.8914011.8435766 1.8914011 1.8859667v.010585c0 1.0423901-.8003632 1.8965517-1.9017024 1.8965517z"/><path d="m44.7184395 55-2.0669199-2.4111532v2.4111532h-.9273817v-3.7931034h.8657705l2.0010228 2.3354625v-2.3354625h.9263102v3.7931034z"/><path d="m49.5061953 55c-1.2395535 0-2.0924022-.8017942-2.0924022-1.8861956v-.0105863c0-1.0425166.881327-1.8963215 2.0869064-1.8963215.7164529 0 1.1486228.1781253 1.5638058.5030775l-.5515788.6126223c-.3072654-.2356593-.5800571-.3718999-1.0407053-.3718999-.6370135 0-1.1431271.5187268-1.1431271 1.1419354v.0105862c0 .6706167.5006178 1.163108 1.206079 1.163108.3177574 0 .6025399-.0731833.8243705-.2200102v-.5237898h-.8818266v-.6968521h1.7291796v1.5925419c-.4096872.3198892-.9727572.5817841-1.7007013.5817841"/><path d="m55.851768 51.97656v3.02344h-.7552601v-3.02344h-1.0447838v-.7696634h2.8448276v.7696634z"/><path d="m60.8169653 53.1034483c0-.6286556-.4483288-1.1523819-1.0807366-1.1523819-.63196 0-1.0708833.5131413-1.0708833 1.1417969v.010585c0 .6286556.4487767 1.1523818 1.0811845 1.1523818.63196 0 1.0704354-.5131413 1.0704354-1.1422571zm-1.0807366 1.8965517c-1.1013392 0-1.8914011-.8435766-1.8914011-1.886427v-.0101247c0-1.0428504.8003632-1.8965517 1.9017023-1.8965517 1.1008913 0 1.8914011.8435766 1.8914011 1.8859667v.010585c0 1.0423901-.8003632 1.8965517-1.9017023 1.8965517z"/><path d="m65.6268849 55c-1.2395534 0-2.0924021-.8017942-2.0924021-1.8861956v-.0105863c0-1.0425166.8813269-1.8963215 2.0869063-1.8963215.7164529 0 1.1486229.1781253 1.5638058.5030775l-.5515788.6126223c-.3072653-.2356593-.580057-.3718999-1.0407052-.3718999-.6370136 0-1.1431271.5187268-1.1431271 1.1419354v.0105862c0 .6706167.5006177 1.163108 1.206079 1.163108.3177573 0 .6025399-.0731833.8243705-.2200102v-.5237898h-.8818266v-.6968521h1.7291795v1.5925419c-.4096871.3198892-.9727572.5817841-1.7007013.5817841"/><path d="m68.2758621 55v-3.7931034h2.8185691v.7421496h-2.0017421v.7697601h1.7611954v.7421496h-1.7611954v.7964184h2.0280006v.7426257z"/><path d="m73.8690094 51.97656v3.02344h-.7552602v-3.02344h-1.0447837v-.7696634h2.8448276v.7696634z"/><path d="m79.6167573 55v-1.5228587h-1.8197215v1.5228587h-.986691v-3.7931034h.986691v1.5009607h1.8197215v-1.5009607h.986691v3.7931034z"/><path d="m81.5517241 55v-3.7931034h2.8185691v.7421496h-2.001742v.7697601h1.7611954v.7421496h-1.7611954v.7964184h2.0280005v.7426257z"/><path d="m88.028144 52.5020446c0-.3574628-.288049-.541668-.7584004-.541668h-.9594288v1.0890477h.9781547c.4703515 0 .7396745-.217048.7396745-.5364321zm-.018726 2.4979554-.9401521-1.213755h-.7589511v1.213755h-.9654872v-3.7931034h2.0064289c1.0337818 0 1.6544915.4716985 1.6544915 1.2518336v.0109476c0 .6121133-.3822294.996707-.9401521 1.1756764l1.0723351 1.3546458z"/><path d="m0 45.5172414h148.87931v-.9482759h-148.87931z"/><path d="m56.8965517 21.4325768v-.0961183c0-9.8322501 7.5438265-17.54335505 17.7307016-17.54335505 6.8710232 0 11.2916573 2.89160145 14.2708567 7.03626375l-7.0155178 5.4465372c-1.9220803-2.4100034-4.1321466-3.9519225-7.3521704-3.9519225-4.7086201 0-8.0239703 3.99973-8.0239703 8.9158551v.0966215c0 5.0605542 3.3153502 9.0124766 8.0239703 9.0124766 3.5080098 0 5.574083-1.6390439 7.5924931-4.0968548l7.0150161 5.0122434c-3.1713572 4.3862162-7.4479984 7.6149866-14.8954951 7.6149866-9.6098998 0-17.3458842-7.3739359-17.3458842-17.4467335"/><path d="m57.8448276 37.9310345v-3.1805125-1.9925326l-6.4045263-2.6616704-6.2113249 2.5813143v-11.2042135-21.4734198l-9.1944936 4.70380541v16.76961439 16.4576147z"/><path d="m102.498667 4.74137931h.863402v7.58620689h-.706275l-5.0682542-6.22093509v6.22093509h-.8634019v-7.58620689h.829543l4.9449861 6.07980589z"/><path d="m108.092891 5.73141434-1.70476 3.84133593h3.398963zm3.803661 6.59617186h-.905418l-.873746-1.990732h-4.059551l-.884806 1.990732h-.862686l3.398962-7.58620689h.788785z"/><path d="m115.155523 12.3275862h-.827311v-6.79516739h-2.43166v-.7910395h5.689655v.7910395h-2.430684z"/><path d="m119.482759 12.3275862h.948275v-7.58620689h-.948275z"/><path d="m126.109912 5.50617971c-1.699916 0-2.911564 1.34124335-2.911564 3.01767395 0 1.67643064 1.232702 3.03843774 2.93312 3.03843774 1.699916 0 2.911062-1.3407489 2.911062-3.01767392 0-1.67643061-1.232201-3.03843777-2.932618-3.03843777m0 6.82140649c-2.26338 0-3.782326-1.7500927-3.782326-3.78296872 0-2.03238166 1.540502-3.80323817 3.803882-3.80323817 2.262878 0 3.782325 1.7500927 3.782325 3.78247435 0 2.03287604-1.540502 3.80373254-3.803881 3.80373254"/><path d="m137.584874 4.74137931h.863402v7.58620689h-.706276l-5.068253-6.22093509v6.22093509h-.863402v-7.58620689h.829543l4.944986 6.07980589z"/><path d="m143.179098 5.73141434-1.70476 3.84133593h3.398962zm3.803661 6.59617186h-.905418l-.873746-1.990732h-4.059551l-.884806 1.990732h-.862686l3.398962-7.58620689h.788785z"/><path d="m148.87931 4.74137931h.791807v6.79516739h3.949573v.7910395h-4.74138z"/><path d="m96.7241379 18.0172414h.7918066v6.7951674h3.9495725v.7910395h-4.7413791z"/><path d="m108.996036 18.7975428h-4.754513v2.5899257h4.253844v.7803014h-4.253844v2.655377h4.810201v.7803014h-5.689655v-7.5862069h5.633967z"/><path d="m113.782546 19.0072764-1.70476 3.8413359h3.398963zm3.803661 6.5961719h-.905418l-.873746-1.990732h-4.059551l-.884806 1.990732h-.862686l3.398963-7.5862069h.788784z"/><path d="m122.244074 25.6034483c-2.292621 0-3.709591-1.6764306-3.709591-3.7824744 0-2.0224941 1.469086-3.8037325 3.657966-3.8037325 1.229647 0 1.989757.3564454 2.719384.974416l-.531487.6288469c-.562953-.492399-1.187856-.8384625-2.219855-.8384625-1.614618 0-2.771991 1.3728834-2.771991 3.0176739 0 1.7604746 1.115581 3.059696 2.886549 3.059696.833859 0 1.605277-.3248053 2.105297-.7331603v-1.8232604h-2.219855v-.7440366h3.011923v2.923248c-.677511.6075887-1.698693 1.1212459-2.92834 1.1212459"/><path d="m132.758621 22.2959044c0 2.1763336-1.331777 3.3075439-3.324875 3.3075439-1.969461 0-3.313056-1.1312103-3.313056-3.2436082v-4.3425987h.898774v4.289235c0 1.6109803.911668 2.5181636 2.437382 2.5181636 1.468769 0 2.401926-.832172 2.401926-2.4647999v-4.3425987h.899849z"/><path d="m140.289139 18.7975428h-4.754513v2.5899257h4.253845v.7803014h-4.253845v2.655377h4.810202v.7803014h-5.689656v-7.5862069h5.633967z"/><path d="m100.506463 32.0579038c-1.6999155 0-2.9115631 1.3412434-2.9115631 3.017674s1.2327023 3.0384378 2.9331191 3.0384378c1.699916 0 2.911063-1.340749 2.911063-3.017674 0-1.6764306-1.232201-3.0384378-2.932619-3.0384378m0 6.8214065c-2.2633793 0-3.7823251-1.7500927-3.7823251-3.7829687 0-2.0323816 1.5405018-3.8032382 3.8038811-3.8032382 2.262879 0 3.782326 1.7500927 3.782326 3.7824744 0 2.032876-1.540502 3.8037325-3.803882 3.8037325"/><path d="m111.896552 32.084143h-4.796177v2.7095787h4.287524v.7803014h-4.287524v3.3052872h-.893478v-7.5862069h5.689655z"/><path d="m119.382138 38.8793103c-2.124952 0-3.692483-1.6660487-3.692483-3.7824743 0-2.0956619 1.556611-3.8037326 3.723754-3.8037326 1.336223 0 2.135376.4716352 2.872482 1.1632679l-.568341.6075887c-.620957-.5868249-1.314879-1.0060562-2.314565-1.0060562-1.630569 0-2.851138 1.3100977-2.851138 3.017674 0 1.7080707 1.230993 3.0389321 2.851138 3.0389321 1.010109 0 1.672761-.3880855 2.377604-1.05846l.546997.534421c-.767881.7751823-1.609722 1.2888394-2.945448 1.2888394"/><path d="m124.224138 38.8793103h.948276v-7.5862069h-.948276z"/><path d="m129.379661 38.8793103h-.827311v-6.7951673h-2.43166v-.7910396h5.689655v.7910396h-2.430684z"/><path d="m133.706897 38.8793103h.948275v-7.5862069h-.948275z"/><path d="m142.185691 32.0734049h-4.754513v2.5899257h4.253844v.7803014h-4.253844v2.6553769h4.810201v.7803014h-5.689655v-7.5862069h5.633967z"/><path d="m146.408526 34.68552c1.690994.3584308 2.470784.9589641 2.470784 2.0968951 0 1.2746419-1.083524 2.0968952-2.589925 2.0968952-1.203178 0-2.189549-.3902472-3.09973-1.1801871l.53128-.610973c.79104.694988 1.549353 1.0429792 2.600664 1.0429792 1.019096 0 1.690994-.5165183 1.690994-1.2646992 0-.6949881-.378901-1.0847381-1.972741-1.4118498-1.744685-.3683735-2.546462-.916211-2.546462-2.1386542 0-1.1801871 1.050799-2.0228228 2.492771-2.0228228 1.105001 0 1.896552.305238 2.666115.9057713l-.499065.6427893c-.704112-.5582772-1.408736-.8008767-2.189037-.8008767-.986371 0-1.614805.526958-1.614805 1.2015637 0 .7059249.390151 1.0956749 2.059157 1.443169"/><path d="m0 4.74137931h8.82875461l14.04757479 17.54315299v-17.54315299h9.3650499v33.18965519h-8.29195l-14.58437942-18.207055v18.207055h-9.36504988z"/></g></svg>