<?xml version="1.0" encoding="UTF-8"?>
<svg width="154px" height="55px" viewBox="0 0 154 55" version="1.1" xmlns="http://www.w3.org/2000/svg" xmlns:xlink="http://www.w3.org/1999/xlink">
    <!-- Generator: Sketch 52.1 (67048) - http://www.bohemiancoding.com/sketch -->
    <title>nlc_footer_logo</title>
    <desc>Created with Sketch.</desc>
    <g id="logos" stroke="none" stroke-width="1" fill="none" fill-rule="evenodd">
        <g id="Artboard" fill="#6A6C6E">
            <g id="nlc_footer_logo">
                <path d="M2.10750893,55 C0.897986552,55 0,54.1669073 0,53.1138044 L0,53.1032181 C0,52.0607015 0.880449767,51.2068966 2.1425825,51.2068966 C2.91781156,51.2068966 3.38202058,51.4370327 3.76318776,51.7725711 L3.18808436,52.3644812 C2.87087487,52.1076493 2.54799171,51.9506965 2.13742462,51.9506965 C1.44420583,51.9506965 0.944923241,52.4639 0.944923241,53.0926319 L0.944923241,53.1032181 C0.944923241,53.73195 1.43234271,54.2557398 2.13742462,54.2557398 C2.60679152,54.2557398 2.89408532,54.0882007 3.21696848,53.8263058 L3.79310345,54.3450326 C3.36964167,54.7486914 2.90027477,55 2.10750893,55" id="Fill-2"></path>
                <polygon id="Fill-4" points="4.74137931 55 5.68965517 55 5.68965517 51.2068966 4.74137931 51.2068966"></polygon>
                <polygon id="Fill-6" points="9.38625076 51.97656 9.38625076 55 8.63099062 55 8.63099062 51.97656 7.5862069 51.97656 7.5862069 51.2068966 10.4310345 51.2068966 10.4310345 51.97656"></polygon>
                <polygon id="Fill-7" points="11.3793103 55 12.3275862 55 12.3275862 51.2068966 11.3793103 51.2068966"></polygon>
                <polygon id="Fill-8" points="14.2241379 55 14.2241379 51.2068966 17.042707 51.2068966 17.042707 51.9490462 15.040965 51.9490462 15.040965 52.7188063 16.8021604 52.7188063 16.8021604 53.4609559 15.040965 53.4609559 15.040965 54.2573743 17.0689655 54.2573743 17.0689655 55"></polygon>
                <path d="M19.5425129,55 C18.9979986,55 18.4485219,54.8051615 18.0172414,54.4099308 L18.4841612,53.8355968 C18.8080728,54.1095741 19.1468716,54.2835866 19.5574002,54.2835866 C19.8813117,54.2835866 20.0766511,54.1516888 20.0766511,53.9360243 L20.0766511,53.9253799 C20.0766511,53.719897 19.9530414,53.6143788 19.3521359,53.4565642 C18.6285229,53.2668164 18.1607008,53.0613335 18.1607008,52.329185 L18.1607008,52.3185406 C18.1607008,51.6493327 18.6849142,51.2068966 19.4193543,51.2068966 C19.9431166,51.2068966 20.3897356,51.3753555 20.7542488,51.6757123 L20.3432691,52.2870702 C20.0247712,52.0602985 19.7116867,51.9237727 19.4085272,51.9237727 C19.1058188,51.9237727 18.9465698,52.0658521 18.9465698,52.2449555 L18.9465698,52.2551371 C18.9465698,52.4976439 19.1008563,52.5767826 19.7220627,52.7401508 C20.4515404,52.9349893 20.862069,53.2038757 20.862069,53.8462412 L20.862069,53.8568856 C20.862069,54.5890342 20.3180058,55 19.5425129,55" id="Fill-9"></path>
                <path d="M25.2321681,55 C24.6876538,55 24.1381771,54.8051615 23.7068966,54.4099308 L24.1738164,53.8355968 C24.4977279,54.1095741 24.8365268,54.2835866 25.2475065,54.2835866 C25.5709669,54.2835866 25.7663063,54.1516888 25.7663063,53.9360243 L25.7663063,53.9253799 C25.7663063,53.719897 25.6426966,53.6143788 25.0417911,53.4565642 C24.3181781,53.2668164 23.850356,53.0613335 23.850356,52.329185 L23.850356,52.3185406 C23.850356,51.6493327 24.3745694,51.2068966 25.1090095,51.2068966 C25.6327717,51.2068966 26.0793907,51.3753555 26.443904,51.6757123 L26.0329243,52.2870702 C25.7144263,52.0602985 25.4013419,51.9237727 25.0981824,51.9237727 C24.7954739,51.9237727 24.6362249,52.0658521 24.6362249,52.2449555 L24.6362249,52.2551371 C24.6362249,52.4976439 24.7905115,52.5767826 25.4112668,52.7401508 C26.1411956,52.9349893 26.5517241,53.2038757 26.5517241,53.8462412 L26.5517241,53.8568856 C26.5517241,54.5890342 26.007661,55 25.2321681,55" id="Fill-10"></path>
                <polygon id="Fill-11" points="30.2483197 51.97656 30.2483197 55 29.4930596 55 29.4930596 51.97656 28.4482759 51.97656 28.4482759 51.2068966 31.2931034 51.2068966 31.2931034 51.97656"></polygon>
                <path d="M34.9246957,52.5020446 C34.9246957,52.1445818 34.6366468,51.9603766 34.1662953,51.9603766 L33.2068665,51.9603766 L33.2068665,53.0494243 L34.1850213,53.0494243 C34.6553727,53.0494243 34.9246957,52.8323763 34.9246957,52.5129922 L34.9246957,52.5020446 Z M34.9059698,55 L33.9658177,53.786245 L33.2068665,53.786245 L33.2068665,55 L32.2413793,55 L32.2413793,51.2068966 L34.2478082,51.2068966 C35.28159,51.2068966 35.9022997,51.6785951 35.9022997,52.4587302 L35.9022997,52.4696778 C35.9022997,53.0817911 35.5200703,53.4663848 34.9621476,53.6453542 L36.0344828,55 L34.9059698,55 Z" id="Fill-12"></path>
                <path d="M39.9548964,53.1034483 C39.9548964,52.4747927 39.5065676,51.9510664 38.8741597,51.9510664 C38.2421997,51.9510664 37.8032765,52.4642077 37.8032765,53.0928633 L37.8032765,53.1034483 C37.8032765,53.7321039 38.2520531,54.2558301 38.884461,54.2558301 C39.5164209,54.2558301 39.9548964,53.7426888 39.9548964,53.113573 L39.9548964,53.1034483 Z M38.8741597,55 C37.7732684,55 36.9827586,54.1564234 36.9827586,53.113573 L36.9827586,53.1034483 C36.9827586,52.0605979 37.7831218,51.2068966 38.884461,51.2068966 C39.9853523,51.2068966 40.7758621,52.0504732 40.7758621,53.0928633 L40.7758621,53.1034483 C40.7758621,54.1458384 39.9754989,55 38.8741597,55 Z" id="Fill-13"></path>
                <polygon id="Fill-14" points="44.7184395 55 42.6515196 52.5888468 42.6515196 55 41.7241379 55 41.7241379 51.2068966 42.5899084 51.2068966 44.5909312 53.5423591 44.5909312 51.2068966 45.5172414 51.2068966 45.5172414 55"></polygon>
                <path d="M49.5061953,55 C48.2666418,55 47.4137931,54.1982058 47.4137931,53.1138044 L47.4137931,53.1032181 C47.4137931,52.0607015 48.2951201,51.2068966 49.5006995,51.2068966 C50.2171524,51.2068966 50.6493223,51.3850219 51.0645053,51.7099741 L50.5129265,52.3225964 C50.2056611,52.0869371 49.9328694,51.9506965 49.4722212,51.9506965 C48.8352077,51.9506965 48.3290941,52.4694233 48.3290941,53.0926319 L48.3290941,53.1032181 C48.3290941,53.7738348 48.8297119,54.2663261 49.5351731,54.2663261 C49.8529305,54.2663261 50.137713,54.1931428 50.3595436,54.0463159 L50.3595436,53.5225261 L49.477717,53.5225261 L49.477717,52.825674 L51.2068966,52.825674 L51.2068966,54.4182159 C50.7972094,54.7381051 50.2341394,55 49.5061953,55" id="Fill-15"></path>
                <polygon id="Fill-16" points="55.851768 51.97656 55.851768 55 55.0965079 55 55.0965079 51.97656 54.0517241 51.97656 54.0517241 51.2068966 56.8965517 51.2068966 56.8965517 51.97656"></polygon>
                <path d="M60.8169653,53.1034483 C60.8169653,52.4747927 60.3686365,51.9510664 59.7362287,51.9510664 C59.1042687,51.9510664 58.6653454,52.4642077 58.6653454,53.0928633 L58.6653454,53.1034483 C58.6653454,53.7321039 59.1141221,54.2558301 59.7465299,54.2558301 C60.3784899,54.2558301 60.8169653,53.7426888 60.8169653,53.113573 L60.8169653,53.1034483 Z M59.7362287,55 C58.6348895,55 57.8448276,54.1564234 57.8448276,53.113573 L57.8448276,53.1034483 C57.8448276,52.0605979 58.6451908,51.2068966 59.7465299,51.2068966 C60.8474212,51.2068966 61.637931,52.0504732 61.637931,53.0928633 L61.637931,53.1034483 C61.637931,54.1458384 60.8375678,55 59.7362287,55 Z" id="Fill-17"></path>
                <path d="M65.6268849,55 C64.3873315,55 63.5344828,54.1982058 63.5344828,53.1138044 L63.5344828,53.1032181 C63.5344828,52.0607015 64.4158097,51.2068966 65.6213891,51.2068966 C66.337842,51.2068966 66.770012,51.3850219 67.1851949,51.7099741 L66.6336161,52.3225964 C66.3263508,52.0869371 66.0535591,51.9506965 65.5929109,51.9506965 C64.9558973,51.9506965 64.4497838,52.4694233 64.4497838,53.0926319 L64.4497838,53.1032181 C64.4497838,53.7738348 64.9504015,54.2663261 65.6558628,54.2663261 C65.9736201,54.2663261 66.2584027,54.1931428 66.4802333,54.0463159 L66.4802333,53.5225261 L65.5984067,53.5225261 L65.5984067,52.825674 L67.3275862,52.825674 L67.3275862,54.4182159 C66.9178991,54.7381051 66.354829,55 65.6268849,55" id="Fill-18"></path>
                <polygon id="Fill-19" points="68.2758621 55 68.2758621 51.2068966 71.0944312 51.2068966 71.0944312 51.9490462 69.0926891 51.9490462 69.0926891 52.7188063 70.8538845 52.7188063 70.8538845 53.4609559 69.0926891 53.4609559 69.0926891 54.2573743 71.1206897 54.2573743 71.1206897 55"></polygon>
                <polygon id="Fill-20" points="73.8690094 51.97656 73.8690094 55 73.1137492 55 73.1137492 51.97656 72.0689655 51.97656 72.0689655 51.2068966 74.9137931 51.2068966 74.9137931 51.97656"></polygon>
                <polygon id="Fill-21" points="79.6167573 55 79.6167573 53.4771413 77.7970358 53.4771413 77.7970358 55 76.8103448 55 76.8103448 51.2068966 77.7970358 51.2068966 77.7970358 52.7078573 79.6167573 52.7078573 79.6167573 51.2068966 80.6034483 51.2068966 80.6034483 55"></polygon>
                <polygon id="Fill-22" points="81.5517241 55 81.5517241 51.2068966 84.3702932 51.2068966 84.3702932 51.9490462 82.3685512 51.9490462 82.3685512 52.7188063 84.1297466 52.7188063 84.1297466 53.4609559 82.3685512 53.4609559 82.3685512 54.2573743 84.3965517 54.2573743 84.3965517 55"></polygon>
                <path d="M88.028144,52.5020446 C88.028144,52.1445818 87.740095,51.9603766 87.2697436,51.9603766 L86.3103148,51.9603766 L86.3103148,53.0494243 L87.2884695,53.0494243 C87.758821,53.0494243 88.028144,52.8323763 88.028144,52.5129922 L88.028144,52.5020446 Z M88.009418,55 L87.0692659,53.786245 L86.3103148,53.786245 L86.3103148,55 L85.3448276,55 L85.3448276,51.2068966 L87.3512565,51.2068966 C88.3850383,51.2068966 89.005748,51.6785951 89.005748,52.4587302 L89.005748,52.4696778 C89.005748,53.0817911 88.6235186,53.4663848 88.0655959,53.6453542 L89.137931,55 L88.009418,55 Z" id="Fill-23"></path>
                <polygon id="Fill-24" points="0 45.5172414 148.87931 45.5172414 148.87931 44.5689655 0 44.5689655"></polygon>
                <path d="M56.8965517,21.4325768 L56.8965517,21.3364585 C56.8965517,11.5042084 64.4403782,3.79310345 74.6272533,3.79310345 C81.4982765,3.79310345 85.9189106,6.6847049 88.89811,10.8293672 L81.8825922,16.2759044 C79.9605119,13.865901 77.7504456,12.3239819 74.5304218,12.3239819 C69.8218017,12.3239819 66.5064515,16.3237119 66.5064515,21.239837 L66.5064515,21.3364585 C66.5064515,26.3970127 69.8218017,30.3489351 74.5304218,30.3489351 C78.0384316,30.3489351 80.1045048,28.7098912 82.1229149,26.2520803 L89.137931,31.2643237 C85.9665738,35.6505399 81.6899326,38.8793103 74.2424359,38.8793103 C64.6325361,38.8793103 56.8965517,31.5053744 56.8965517,21.4325768" id="Fill-25"></path>
                <polygon id="Fill-26" points="57.8448276 37.9310345 57.8448276 34.750522 57.8448276 32.7579894 51.4403013 30.096319 45.2289764 32.6776333 45.2289764 21.4734198 45.2289764 0 36.0344828 4.70380541 36.0344828 21.4734198 36.0344828 37.9310345"></polygon>
                <polygon id="Fill-27" points="102.498667 4.74137931 103.362069 4.74137931 103.362069 12.3275862 102.655794 12.3275862 97.5875398 6.10665111 97.5875398 12.3275862 96.7241379 12.3275862 96.7241379 4.74137931 97.5536809 4.74137931 102.498667 10.8211852"></polygon>
                <path d="M108.092891,5.73141434 L106.388131,9.57275027 L109.787094,9.57275027 L108.092891,5.73141434 Z M111.896552,12.3275862 L110.991134,12.3275862 L110.117388,10.3368542 L106.057837,10.3368542 L105.173031,12.3275862 L104.310345,12.3275862 L107.709307,4.74137931 L108.498092,4.74137931 L111.896552,12.3275862 Z" id="Fill-28"></path>
                <polygon id="Fill-29" points="115.155523 12.3275862 114.328212 12.3275862 114.328212 5.53241881 111.896552 5.53241881 111.896552 4.74137931 117.586207 4.74137931 117.586207 5.53241881 115.155523 5.53241881"></polygon>
                <polygon id="Fill-30" points="119.482759 12.3275862 120.431034 12.3275862 120.431034 4.74137931 119.482759 4.74137931"></polygon>
                <path d="M126.109912,5.50617971 C124.409996,5.50617971 123.198348,6.84742306 123.198348,8.52385366 C123.198348,10.2002843 124.43105,11.5622914 126.131468,11.5622914 C127.831384,11.5622914 129.04253,10.2215425 129.04253,8.54461748 C129.04253,6.86818687 127.810329,5.50617971 126.109912,5.50617971 M126.109912,12.3275862 C123.846532,12.3275862 122.327586,10.5774935 122.327586,8.54461748 C122.327586,6.51223582 123.868088,4.74137931 126.131468,4.74137931 C128.394346,4.74137931 129.913793,6.49147201 129.913793,8.52385366 C129.913793,10.5567297 128.373291,12.3275862 126.109912,12.3275862" id="Fill-31"></path>
                <polygon id="Fill-32" points="137.584874 4.74137931 138.448276 4.74137931 138.448276 12.3275862 137.742 12.3275862 132.673747 6.10665111 132.673747 12.3275862 131.810345 12.3275862 131.810345 4.74137931 132.639888 4.74137931 137.584874 10.8211852"></polygon>
                <path d="M143.179098,5.73141434 L141.474338,9.57275027 L144.8733,9.57275027 L143.179098,5.73141434 Z M146.982759,12.3275862 L146.077341,12.3275862 L145.203595,10.3368542 L141.144044,10.3368542 L140.259238,12.3275862 L139.396552,12.3275862 L142.795514,4.74137931 L143.584299,4.74137931 L146.982759,12.3275862 Z" id="Fill-33"></path>
                <polygon id="Fill-34" points="148.87931 4.74137931 149.671117 4.74137931 149.671117 11.5365467 153.62069 11.5365467 153.62069 12.3275862 148.87931 12.3275862"></polygon>
                <polygon id="Fill-35" points="96.7241379 18.0172414 97.5159445 18.0172414 97.5159445 24.8124088 101.465517 24.8124088 101.465517 25.6034483 96.7241379 25.6034483"></polygon>
                <polygon id="Fill-36" points="108.996036 18.7975428 104.241523 18.7975428 104.241523 21.3874685 108.495367 21.3874685 108.495367 22.1677699 104.241523 22.1677699 104.241523 24.8231469 109.051724 24.8231469 109.051724 25.6034483 103.362069 25.6034483 103.362069 18.0172414 108.996036 18.0172414"></polygon>
                <path d="M113.782546,19.0072764 L112.077786,22.8486123 L115.476749,22.8486123 L113.782546,19.0072764 Z M117.586207,25.6034483 L116.680789,25.6034483 L115.807043,23.6127163 L111.747492,23.6127163 L110.862686,25.6034483 L110,25.6034483 L113.398963,18.0172414 L114.187747,18.0172414 L117.586207,25.6034483 Z" id="Fill-37"></path>
                <path d="M122.244074,25.6034483 C119.951453,25.6034483 118.534483,23.9270177 118.534483,21.8209739 C118.534483,19.7984798 120.003569,18.0172414 122.192449,18.0172414 C123.422096,18.0172414 124.182206,18.3736868 124.911833,18.9916574 L124.380346,19.6205043 C123.817393,19.1281053 123.19249,18.7820418 122.160491,18.7820418 C120.545873,18.7820418 119.3885,20.1549252 119.3885,21.7997157 C119.3885,23.5601903 120.504081,24.8594117 122.275049,24.8594117 C123.108908,24.8594117 123.880326,24.5346064 124.380346,24.1262514 L124.380346,22.302991 L122.160491,22.302991 L122.160491,21.5589544 L125.172414,21.5589544 L125.172414,24.4822024 C124.494903,25.0897911 123.473721,25.6034483 122.244074,25.6034483" id="Fill-38"></path>
                <path d="M132.758621,22.2959044 C132.758621,24.472238 131.426844,25.6034483 129.433746,25.6034483 C127.464285,25.6034483 126.12069,24.472238 126.12069,22.3598401 L126.12069,18.0172414 L127.019464,18.0172414 L127.019464,22.3064764 C127.019464,23.9174567 127.931132,24.82464 129.456846,24.82464 C130.925615,24.82464 131.858772,23.992468 131.858772,22.3598401 L131.858772,18.0172414 L132.758621,18.0172414 L132.758621,22.2959044 Z" id="Fill-39"></path>
                <polygon id="Fill-40" points="140.289139 18.7975428 135.534626 18.7975428 135.534626 21.3874685 139.788471 21.3874685 139.788471 22.1677699 135.534626 22.1677699 135.534626 24.8231469 140.344828 24.8231469 140.344828 25.6034483 134.655172 25.6034483 134.655172 18.0172414 140.289139 18.0172414"></polygon>
                <path d="M100.506463,32.0579038 C98.8065475,32.0579038 97.5948999,33.3991472 97.5948999,35.0755778 C97.5948999,36.7520084 98.8276022,38.1140156 100.528019,38.1140156 C102.227935,38.1140156 103.439082,36.7732666 103.439082,35.0963416 C103.439082,33.419911 102.206881,32.0579038 100.506463,32.0579038 M100.506463,38.8793103 C98.2430837,38.8793103 96.7241379,37.1292176 96.7241379,35.0963416 C96.7241379,33.06396 98.2646397,31.2931034 100.528019,31.2931034 C102.790898,31.2931034 104.310345,33.0431961 104.310345,35.0755778 C104.310345,37.1084538 102.769843,38.8793103 100.506463,38.8793103" id="Fill-41"></path>
                <polygon id="Fill-42" points="111.896552 32.084143 107.100375 32.084143 107.100375 34.7937217 111.387899 34.7937217 111.387899 35.5740231 107.100375 35.5740231 107.100375 38.8793103 106.206897 38.8793103 106.206897 31.2931034 111.896552 31.2931034"></polygon>
                <path d="M119.382138,38.8793103 C117.257186,38.8793103 115.689655,37.2132616 115.689655,35.096836 C115.689655,33.0011741 117.246266,31.2931034 119.413409,31.2931034 C120.749632,31.2931034 121.548785,31.7647386 122.285891,32.4563713 L121.71755,33.06396 C121.096593,32.4771351 120.402671,32.0579038 119.402985,32.0579038 C117.772416,32.0579038 116.551847,33.3680015 116.551847,35.0755778 C116.551847,36.7836485 117.78284,38.1145099 119.402985,38.1145099 C120.413094,38.1145099 121.075746,37.7264244 121.780589,37.0560499 L122.327586,37.5904709 C121.559705,38.3656532 120.717864,38.8793103 119.382138,38.8793103" id="Fill-43"></path>
                <polygon id="Fill-44" points="124.224138 38.8793103 125.172414 38.8793103 125.172414 31.2931034 124.224138 31.2931034"></polygon>
                <polygon id="Fill-45" points="129.379661 38.8793103 128.55235 38.8793103 128.55235 32.084143 126.12069 32.084143 126.12069 31.2931034 131.810345 31.2931034 131.810345 32.084143 129.379661 32.084143"></polygon>
                <polygon id="Fill-46" points="133.706897 38.8793103 134.655172 38.8793103 134.655172 31.2931034 133.706897 31.2931034"></polygon>
                <polygon id="Fill-47" points="142.185691 32.0734049 137.431178 32.0734049 137.431178 34.6633306 141.685022 34.6633306 141.685022 35.443632 137.431178 35.443632 137.431178 38.0990089 142.241379 38.0990089 142.241379 38.8793103 136.551724 38.8793103 136.551724 31.2931034 142.185691 31.2931034"></polygon>
                <path d="M146.408526,34.68552 C148.09952,35.0439508 148.87931,35.6444841 148.87931,36.7824151 C148.87931,38.057057 147.795786,38.8793103 146.289385,38.8793103 C145.086207,38.8793103 144.099836,38.4890631 143.189655,37.6991232 L143.720935,37.0881502 C144.511975,37.7831382 145.270288,38.1311294 146.321599,38.1311294 C147.340695,38.1311294 148.012593,37.6146111 148.012593,36.8664302 C148.012593,36.1714421 147.633692,35.7816921 146.039852,35.4545804 C144.295167,35.0862069 143.49339,34.5383694 143.49339,33.3159262 C143.49339,32.1357391 144.544189,31.2931034 145.986161,31.2931034 C147.091162,31.2931034 147.882713,31.5983414 148.652276,32.1988747 L148.153211,32.841664 C147.449099,32.2833868 146.744475,32.0407873 145.964174,32.0407873 C144.977803,32.0407873 144.349369,32.5677453 144.349369,33.242351 C144.349369,33.9482759 144.73952,34.3380259 146.408526,34.68552" id="Fill-48"></path>
                <polygon id="Fill-49" points="0 4.74137931 8.82875461 4.74137931 22.8763294 22.2845323 22.8763294 4.74137931 32.2413793 4.74137931 32.2413793 37.9310345 23.9494293 37.9310345 9.36504988 19.7239795 9.36504988 37.9310345 0 37.9310345"></polygon>
            </g>
        </g>
    </g>
</svg>