<svg enable-background="new 0 0 765.5 282.3" viewBox="0 0 765.5 282.3" xmlns="http://www.w3.org/2000/svg"><g fill="#fff"><path d="m280.6 112.5v-.5c0-48.9 37.6-87.3 88.5-87.3 34.3 0 56.3 14.4 71.2 35l-35 27.1c-9.6-12-20.6-19.7-36.7-19.7-23.5 0-40 19.9-40 44.4v.5c0 25.2 16.5 44.8 40 44.8 17.5 0 27.8-8.2 37.9-20.4l35 24.9c-15.8 21.8-37.2 37.9-74.3 37.9-48 .1-86.6-36.6-86.6-86.7z"/><path d="m286.7 195.9v-16-10.1l-32.2-13.4-31.3 13v-56.5-108.4l-46.2 23.7v84.7 83z"/><path d="m480.9 28h3.9l23.4 29.8v-29.8h4.1v37.1h-3.3l-24-30.4v30.4h-4.1z"/><path d="m536.5 27.7h3.9l16.9 37.4h-4.5l-4.3-9.8h-20.2l-4.4 9.8h-4.3zm10.4 23.9-8.4-18.9-8.5 18.9z"/><path d="m569.1 31.9h-12.5v-3.9h29.2v3.9h-12.5v33.3h-4.2z"/><path d="m593.8 28h4.2v37.1h-4.2z"/><path d="m607.2 46.7v-.1c0-10.2 7.7-19.2 19-19.2s18.9 8.9 18.9 19.1v.1c0 10.2-7.7 19.2-19 19.2s-18.9-8.9-18.9-19.1zm33.5 0v-.1c0-8.4-6.2-15.3-14.6-15.3s-14.5 6.8-14.5 15.2v.1c0 8.4 6.2 15.3 14.6 15.3s14.5-6.8 14.5-15.2z"/><path d="m653.9 28h3.9l23.4 29.8v-29.8h4.1v37.1h-3.3l-24-30.4v30.4h-4.1z"/><path d="m709.6 27.7h3.9l16.9 37.4h-4.5l-4.3-9.8h-20.2l-4.4 9.8h-4.3zm10.3 23.9-8.4-18.9-8.5 18.9z"/><path d="m737.7 28h4.2v33.3h20.9v3.9h-25.1z"/><path d="m480.9 93.4h4.2v33.3h20.9v3.9h-25.1z"/><path d="m513.5 93.4h26.8v3.8h-22.6v12.7h20.3v3.8h-20.3v13h22.9v3.8h-27.1z"/><path d="m562.8 93.2h3.9l16.9 37.4h-4.5l-4.3-9.8h-20.2l-4.4 9.8h-4.3zm10.3 23.8-8.4-19-8.5 18.9h16.9z"/><path d="m587.1 112.1v-.1c0-10.2 7.5-19.2 18.6-19.2 6.3 0 10.1 1.8 13.8 4.9l-2.7 3.2c-2.9-2.5-6-4.2-11.3-4.2-8.2 0-14.1 6.9-14.1 15.2v.1c0 8.9 5.7 15.4 14.7 15.4 4.2 0 8.2-1.6 10.7-3.7v-9.2h-11.3v-3.8h15.3v14.8c-3.4 3.1-8.6 5.7-14.9 5.7-11.5 0-18.8-8.5-18.8-19.1z"/><path d="m629.8 115v-21.6h4.2v21.3c0 8 4.2 12.5 11.4 12.5 6.8 0 11.2-4.1 11.2-12.3v-21.5h4.2v21.3c0 10.8-6.2 16.4-15.5 16.4-9.2 0-15.5-5.6-15.5-16.1z"/><path d="m670.6 93.4h26.8v3.8h-22.6v12.7h20.3v3.8h-20.3v13h22.9v3.8h-27.1z"/><path d="m479.3 177.5v-.1c0-10.2 7.7-19.2 19-19.2s18.9 8.9 18.9 19.1v.1c0 10.2-7.7 19.2-19 19.2-11.4 0-18.9-8.8-18.9-19.1zm33.5 0v-.1c0-8.4-6.2-15.3-14.6-15.3s-14.5 6.8-14.5 15.2v.1c0 8.4 6.2 15.3 14.6 15.3s14.5-6.7 14.5-15.2z"/><path d="m526 158.8h26.7v3.9h-22.5v13.3h20.1v3.8h-20.1v16.2h-4.2z"/><path d="m575 177.5v-.1c0-10.5 7.9-19.2 18.8-19.2 6.7 0 10.8 2.4 14.5 5.9l-2.9 3.1c-3.1-3-6.6-5.1-11.7-5.1-8.2 0-14.4 6.7-14.4 15.2v.1c0 8.6 6.2 15.3 14.4 15.3 5.1 0 8.4-2 12-5.4l2.8 2.7c-3.9 3.9-8.1 6.5-14.9 6.5-10.6.1-18.6-8.3-18.6-19z"/><path d="m616.4 158.8h4.2v37.2h-4.2z"/><path d="m641.1 162.7h-12.5v-3.9h29.2v3.9h-12.5v33.3h-4.2z"/><path d="m665.9 158.8h4.2v37.2h-4.2z"/><path d="m680.9 158.8h26.8v3.8h-22.6v12.7h20.3v3.8h-20.3v13h22.9v3.8h-27.1z"/><path d="m714 190.6 2.6-3.1c3.9 3.5 7.6 5.3 12.7 5.3 5 0 8.3-2.7 8.3-6.3v-.1c0-3.4-1.9-5.4-9.7-7.1-8.5-1.9-12.5-4.6-12.5-10.7v-.1c0-5.8 5.1-10.1 12.2-10.1 5.4 0 9.3 1.5 13 4.6l-2.4 3.2c-3.4-2.8-6.9-4-10.7-4-4.8 0-7.9 2.7-7.9 6v.1c0 3.5 1.9 5.5 10.1 7.2 8.3 1.8 12.1 4.8 12.1 10.5v.1c0 6.4-5.3 10.5-12.7 10.5-5.8-.1-10.6-2.1-15.1-6z"/><path d="m0 28.1h43.4l69.1 88.7v-88.7h46v167.8h-40.8l-71.7-92.1v92.1h-46z"/><path d="m0 268.5c0-5.7 4.3-10.4 10.4-10.4 3.8 0 6 1.3 7.9 3.1l-2.8 3.2c-1.5-1.4-3.1-2.3-5.1-2.3-3.4 0-5.8 2.8-5.8 6.2v.1c0 3.4 2.4 6.3 5.8 6.3 2.3 0 3.7-.9 5.2-2.3l2.8 2.8c-2.1 2.2-4.3 3.6-8.2 3.6-5.9 0-10.2-4.6-10.2-10.3z"/><path d="m24.3 258.5h4.4v20h-4.4z"/><path d="m40.4 262.5h-6.1v-4h16.5v4h-6.1v15.9h-4.4v-15.9z"/><path d="m56.6 258.5h4.4v20h-4.4z"/><path d="m68.1 258.5h15v3.9h-10.6v4h9.4v3.9h-9.4v4.2h10.8v3.9h-15.2z"/><path d="m88 275.5 2.6-3.1c1.8 1.5 3.7 2.4 6 2.4 1.8 0 2.9-.7 2.9-1.9v-.1c0-1.1-.7-1.7-4-2.5-4-1-6.6-2.1-6.6-6.1v-.1c0-3.6 2.9-6 7-6 2.9 0 5.4.9 7.4 2.5l-2.3 3.3c-1.8-1.2-3.5-2-5.2-2s-2.6.8-2.6 1.7v.1c0 1.3.9 1.7 4.3 2.6 4 1.1 6.3 2.5 6.3 6v.1c0 4-3 6.2-7.3 6.2-3.1.1-6.1-.9-8.5-3.1z"/><path d="m119 275.5 2.6-3.1c1.8 1.5 3.7 2.4 6 2.4 1.8 0 2.9-.7 2.9-1.9v-.1c0-1.1-.7-1.7-4-2.5-4-1-6.6-2.1-6.6-6.1v-.1c0-3.6 2.9-6 7-6 2.9 0 5.4.9 7.4 2.5l-2.3 3.4c-1.8-1.2-3.5-2-5.2-2s-2.6.8-2.6 1.7v.1c0 1.3.9 1.7 4.3 2.6 4 1.1 6.3 2.5 6.3 6v.1c0 4-3 6.2-7.3 6.2-3 0-6.1-1-8.5-3.2z"/><path d="m145 262.5h-6.1v-4h16.5v4h-6.1v15.9h-4.3z"/><path d="m161 258.5h9.1c2.5 0 4.5.7 5.8 2 1.1 1.1 1.7 2.7 1.7 4.6v.1c0 3.2-1.7 5.2-4.3 6.2l4.9 7.1h-5.1l-4.3-6.4h-3.4v6.4h-4.4zm8.8 9.7c2.1 0 3.4-1.1 3.4-2.8v-.1c0-1.9-1.3-2.9-3.4-2.9h-4.4v5.7h4.4z"/><path d="m182.9 268.5c0-5.7 4.5-10.4 10.6-10.4s10.6 4.6 10.6 10.3v.1c0 5.7-4.5 10.3-10.6 10.3s-10.6-4.6-10.6-10.3zm16.6 0c0-3.5-2.5-6.3-6-6.3s-6 2.8-6 6.2v.1c0 3.4 2.5 6.3 6 6.3 3.5-.1 6-2.9 6-6.3z"/><path d="m210.1 258.5h4l9.3 12.3v-12.3h4.3v20h-3.7l-9.7-12.7v12.7h-4.3v-20z"/><path d="m233.9 268.5c0-5.7 4.4-10.4 10.5-10.4 3.6 0 5.8 1 7.8 2.7l-2.8 3.3c-1.5-1.3-2.9-2-5.2-2-3.2 0-5.7 2.8-5.7 6.2v.1c0 3.6 2.5 6.3 6 6.3 1.6 0 3-.4 4.1-1.2v-2.9h-4.4v-3.8h8.7v8.7c-2.1 1.7-4.9 3.2-8.5 3.2-6.2.1-10.5-4.3-10.5-10.2z"/><path d="m274.6 262.5h-6.1v-4h16.5v4h-6v15.9h-4.4z"/><path d="m288.8 268.5c0-5.7 4.5-10.4 10.6-10.4s10.6 4.6 10.6 10.3v.1c0 5.7-4.5 10.3-10.6 10.3s-10.6-4.6-10.6-10.3zm16.6 0c0-3.5-2.5-6.3-6-6.3s-6 2.8-6 6.2v.1c0 3.4 2.5 6.3 6 6.3 3.6-.1 6-2.9 6-6.3z"/><path d="m315.2 268.5c0-5.7 4.4-10.4 10.5-10.4 3.6 0 5.8 1 7.8 2.7l-2.8 3.3c-1.5-1.3-2.9-2-5.2-2-3.2 0-5.7 2.8-5.7 6.2v.1c0 3.6 2.5 6.3 6 6.3 1.6 0 3-.4 4.1-1.2v-2.9h-4.4v-3.8h8.7v8.7c-2.1 1.7-4.9 3.2-8.5 3.2-6.2.1-10.5-4.3-10.5-10.2z"/><path d="m340.6 258.5h15v3.9h-10.7v4h9.4v3.9h-9.4v4.2h10.8v3.9h-15.2v-19.9z"/><path d="m366.5 262.5h-6.1v-4h16.5v4h-6.1v15.9h-4.4v-15.9z"/><path d="m382.4 258.5h4.4v7.9h8.1v-7.9h4.4v20h-4.4v-8h-8.1v8h-4.4z"/><path d="m406.2 258.5h15v3.9h-10.7v4h9.4v3.9h-9.4v4.2h10.8v3.9h-15.2v-19.9z"/><path d="m427.5 258.5h9.1c2.5 0 4.5.7 5.8 2 1.1 1.1 1.7 2.7 1.7 4.6v.1c0 3.2-1.7 5.2-4.3 6.2l4.9 7.1h-5.1l-4.3-6.4h-3.4v6.4h-4.4zm8.8 9.7c2.1 0 3.4-1.1 3.4-2.8v-.1c0-1.9-1.3-2.9-3.4-2.9h-4.4v5.7h4.4z"/><path d="m0 227.9h741.6v4.8h-741.6z"/></g></svg>